HIERARCHY
ROOT Hips
{
	OFFSET 0.000000 0.000000 0.000000
	CHANNELS 6 Xposition Yposition Zposition Xrotation Yrotation Zrotation
	JOINT LeftUpLeg_virtual
	{
		OFFSET 0.000000 0.000000 0.000000
		CHANNELS 3 Xrotation Yrotation Zrotation
		JOINT LeftUpLeg
		{
			OFFSET 11.394100 -6.187798 -0.413800
			CHANNELS 3 Xrotation Yrotation Zrotation
			JOINT LeftLeg
			{
				OFFSET 0.430247 -32.302673 3.732800
				CHANNELS 3 Xrotation Yrotation Zrotation
				JOINT LeftFoot
				{
					OFFSET -0.430247 -48.264931 -6.423300
					CHANNELS 3 Xrotation Yrotation Zrotation
					JOINT LeftToeBase
					{
						OFFSET 4.230900 -16.068199 23.438400
						CHANNELS 3 Xrotation Yrotation Zrotation
						JOINT LeftToe_End
						{
							OFFSET 4.510700 0.695400 19.974600
							CHANNELS 3 Xrotation Yrotation Zrotation
							End Site
							{
								OFFSET 0 0 0
							}
						}
					}
				}
			}
		}
	}
	JOINT RightUpLeg_virtual
	{
		OFFSET 0.000000 0.000000 0.000000
		CHANNELS 3 Xrotation Yrotation Zrotation
		JOINT RightUpLeg
		{
			OFFSET -11.333700 -6.187798 -0.413800
			CHANNELS 3 Xrotation Yrotation Zrotation
			JOINT RightLeg
			{
				OFFSET -0.430392 -32.302628 3.733000
				CHANNELS 3 Xrotation Yrotation Zrotation
				JOINT RightFoot
				{
					OFFSET 0.430392 -48.264973 -6.423500
					CHANNELS 3 Xrotation Yrotation Zrotation
					JOINT RightToeBase
					{
						OFFSET -4.230900 -16.068199 23.438400
						CHANNELS 3 Xrotation Yrotation Zrotation
						JOINT RightToe_End
						{
							OFFSET -4.510700 0.695400 19.974600
							CHANNELS 3 Xrotation Yrotation Zrotation
							End Site
							{
								OFFSET 0 0 0
							}
						}
					}
				}
			}
		}
	}
	JOINT Spine_virtual
	{
		OFFSET 0.000000 0.000000 0.000000
		CHANNELS 3 Xrotation Yrotation Zrotation
		JOINT Spine
		{
			OFFSET -0.002400 12.777504 0.315300
			CHANNELS 3 Xrotation Yrotation Zrotation
			JOINT Spine1
			{
				OFFSET -0.002067 5.816869 0.032633
				CHANNELS 3 Xrotation Yrotation Zrotation
				JOINT Spine1_split
				{
					OFFSET -0.002067 5.816869 0.032633
					CHANNELS 3 Xrotation Yrotation Zrotation
					JOINT Spine2
					{
						OFFSET -0.002067 5.816869 0.032633
						CHANNELS 3 Xrotation Yrotation Zrotation
						JOINT Neck_virtual
						{
							OFFSET 0.000000 0.000000 0.000000
							CHANNELS 3 Xrotation Yrotation Zrotation
							JOINT Neck
							{
								OFFSET -0.003700 21.199493 -0.826900
								CHANNELS 3 Xrotation Yrotation Zrotation
								JOINT Head
								{
									OFFSET 0.000000 20.442200 4.834800
									CHANNELS 3 Xrotation Yrotation Zrotation
									JOINT HeadTop_End
									{
										OFFSET 0.000000 34.668396 4.968400
										CHANNELS 3 Xrotation Yrotation Zrotation
										End Site
										{
											OFFSET 0 0 0
										}
									}
								}
							}
						}
						JOINT LeftShoulder_virtual
						{
							OFFSET 0.000000 0.000000 0.000000
							CHANNELS 3 Xrotation Yrotation Zrotation
							JOINT LeftShoulder
							{
								OFFSET 3.288150 8.794197 -1.372250
								CHANNELS 3 Xrotation Yrotation Zrotation
								JOINT LeftShoulder_split
								{
									OFFSET 3.288150 8.794197 -1.372250
									CHANNELS 3 Xrotation Yrotation Zrotation
									JOINT LeftArm
									{
										OFFSET 11.953299 -2.279007 -0.146200
										CHANNELS 3 Xrotation Yrotation Zrotation
										JOINT LeftForeArm
										{
											OFFSET 18.448900 0.000000 0.000000
											CHANNELS 3 Xrotation Yrotation Zrotation
											JOINT LeftHand
											{
												OFFSET 29.527798 0.000000 0.000000
												CHANNELS 3 Xrotation Yrotation Zrotation
												End Site
												{
													OFFSET 0 0 0
												}
											}
										}
									}
								}
							}
						}
						JOINT RightShoulder_virtual
						{
							OFFSET 0.000000 0.000000 0.000000
							CHANNELS 3 Xrotation Yrotation Zrotation
							JOINT RightShoulder
							{
								OFFSET -3.249400 8.794197 -1.372250
								CHANNELS 3 Xrotation Yrotation Zrotation
								JOINT RightShoulder_split
								{
									OFFSET -3.249400 8.794197 -1.372250
									CHANNELS 3 Xrotation Yrotation Zrotation
									JOINT RightArm
									{
										OFFSET -11.953299 -2.279007 -0.146200
										CHANNELS 3 Xrotation Yrotation Zrotation
										JOINT RightForeArm
										{
											OFFSET -18.448900 0.000000 0.000000
											CHANNELS 3 Xrotation Yrotation Zrotation
											JOINT RightHand
											{
												OFFSET -29.527802 0.000000 0.000000
												CHANNELS 3 Xrotation Yrotation Zrotation
												End Site
												{
													OFFSET 0 0 0
												}
											}
										}
									}
								}
							}
						}
					}
				}
			}
		}
	}
}
MOTION
Frames: 11
Frame Time: 0.03333333
0.159074 101.858734 0.275246 0.000000 0.000000 0.000000 -3.752922 -5.216189 -3.655259 -12.080906 14.419492 10.837305 12.509812 2.079783 4.085803 2.254453 0.423360 -7.278666 -4.940033 0.000003 0.000003 0.000000 0.000000 0.000000 -3.752922 -5.216189 -3.655259 1.442270 -10.344073 3.406063 6.288722 -9.700702 -3.282940 -3.388020 -1.695043 3.302588 -7.282874 -0.000007 0.000000 0.000000 0.000000 0.000000 -3.752922 -5.216189 -3.655259 3.298727 1.541741 2.632090 1.151563 0.341256 1.563088 0.000000 0.000000 0.000000 0.000000 0.000000 0.000000 1.124399 0.369602 1.558066 5.626311 -0.076130 0.454683 -7.563350 1.377076 -0.080249 0.000000 0.000000 0.000000 1.124399 0.369602 1.558066 1.046818 -17.441252 -12.316048 0.000000 0.000000 0.000000 3.916269 -19.989262 -69.765232 0.000005 -1.459371 -0.000001 0.000000 0.000000 0.000000 1.124399 0.369602 1.558066 1.209147 15.345166 14.705933 0.000000 0.000000 0.000000 13.158859 27.555118 58.785171 -0.000001 6.693734 0.000006 0.000000 0.000000 0.000000 
0.172677 101.842804 0.255264 0.000000 0.000000 0.000000 -3.797522 -5.512800 -3.731629 -12.130156 14.420939 10.993428 12.715615 2.345114 4.031159 2.115355 0.422699 -7.270800 -4.940033 -0.000000 -0.000003 0.000000 0.000000 0.000000 -3.797522 -5.512800 -3.731629 1.390905 -10.347439 3.543116 6.361224 -9.008726 -3.380424 -3.353019 -2.100632 3.253255 -7.282873 0.000023 0.000003 0.000000 0.000000 0.000000 -3.797522 -5.512800 -3.731629 3.298497 1.541433 2.640636 1.151564 0.341254 1.563088 0.000000 0.000000 0.000000 0.000000 0.000000 0.000000 1.124399 0.369603 1.558065 5.658004 -0.073426 0.433888 -7.562017 1.396771 -0.134893 0.000000 0.000000 0.000000 1.124399 0.369603 1.558065 1.049205 -17.430822 -12.315334 0.000000 0.000000 0.000000 3.861909 -20.202542 -69.781338 -0.000001 -1.523122 0.000002 0.000000 0.000000 0.000000 1.124399 0.369603 1.558065 1.206566 15.367489 14.694092 0.000000 0.000000 0.000000 13.125059 27.554849 58.770745 -0.000004 6.622060 0.000010 0.000000 0.000000 0.000000 
0.183332 101.819443 0.242744 0.000000 0.000000 0.000000 -3.847600 -5.830173 -3.807366 -12.186575 14.425269 11.159183 12.958172 2.625593 3.974797 1.949830 0.422225 -7.273925 -4.940035 -0.000000 -0.000003 0.000000 0.000000 0.000000 -3.847600 -5.830173 -3.807366 1.308286 -10.343851 3.668397 6.500547 -8.312798 -3.470453 -3.347351 -2.497743 3.203902 -7.287773 0.000002 -0.000001 0.000000 0.000000 0.000000 -3.847600 -5.830173 -3.807366 3.298338 1.541065 2.646631 1.151563 0.341255 1.563088 0.000000 0.000000 0.000000 0.000000 0.000000 0.000000 1.124399 0.369604 1.558064 5.693594 -0.068301 0.415616 -7.559566 1.446651 -0.179899 0.000000 0.000000 0.000000 1.124399 0.369604 1.558064 1.050918 -17.423336 -12.314821 0.000000 0.000000 0.000000 3.808594 -20.203681 -69.807928 0.000001 -1.531668 -0.000010 0.000000 0.000000 0.000000 1.124399 0.369604 1.558064 1.199731 15.377512 14.710616 0.000000 0.000000 0.000000 13.152615 27.622921 58.680518 -0.000004 6.503550 -0.000003 0.000000 0.000000 0.000000 
0.192003 101.792137 0.237278 0.000000 0.000000 0.000000 -3.902543 -6.166240 -3.887376 -12.244388 14.434111 11.337685 13.220487 2.918199 3.916874 1.778421 0.419534 -7.290429 -4.940036 0.000000 0.000001 0.000000 0.000000 0.000000 -3.902543 -6.166240 -3.887376 1.217925 -10.337216 3.791670 6.668660 -7.599134 -3.554312 -3.355622 -2.895208 3.151146 -7.299795 0.000008 0.000001 0.000000 0.000000 0.000000 -3.902543 -6.166240 -3.887376 3.298161 1.540607 2.658224 1.151564 0.344953 1.563089 0.000000 0.000000 0.000000 0.000000 0.000000 0.000000 1.124399 0.369601 1.564418 5.730483 -0.065323 0.401213 -7.556037 1.513080 -0.218141 0.000000 0.000000 0.000000 1.124399 0.369601 1.564418 1.053011 -17.414189 -12.314193 0.000000 0.000000 0.000000 3.768664 -20.016609 -69.831567 -0.000012 -1.492141 -0.000007 0.000000 0.000000 0.000000 1.124399 0.369601 1.564418 1.187784 15.381772 14.752401 0.000000 0.000000 0.000000 13.268581 27.793930 58.482894 -0.000001 6.357389 -0.000016 0.000000 0.000000 0.000000 
0.200404 101.763657 0.237415 0.000000 0.000000 0.000000 -3.962869 -6.516044 -3.966395 -12.292966 14.445280 11.517677 13.486450 3.221015 3.858849 1.613697 0.417396 -7.322379 -4.940033 -0.000007 0.000000 0.000000 0.000000 0.000000 -3.962869 -6.516044 -3.966395 1.127556 -10.329896 3.910331 6.850332 -6.876593 -3.638170 -3.370639 -3.293456 3.099015 -7.309937 -0.000005 -0.000000 0.000000 0.000000 0.000000 -3.962869 -6.516044 -3.966395 3.297947 1.543603 2.671161 1.151563 0.348857 1.567591 0.000000 0.000000 0.000000 0.000000 0.000000 0.000000 1.124400 0.374512 1.572563 5.766740 -0.063443 0.390193 -7.547625 1.558061 -0.262354 0.000000 0.000000 0.000000 1.124400 0.374512 1.572563 1.057808 -17.393217 -12.312763 0.000000 0.000000 0.000000 3.758146 -19.732135 -69.832086 -0.000007 -1.420456 0.000011 0.000000 0.000000 0.000000 1.124400 0.374512 1.572563 1.178337 15.402406 14.787809 0.000000 0.000000 0.000000 13.468018 28.056737 58.208867 -0.000008 6.243474 -0.000008 0.000000 0.000000 0.000000 
0.210753 101.735863 0.241600 0.000000 0.000000 0.000000 -4.027118 -6.875440 -4.035446 -12.319465 14.456498 11.682957 13.737655 3.536702 3.801026 1.459847 0.415560 -7.367171 -4.940033 -0.000002 0.000001 0.000000 0.000000 0.000000 -4.027118 -6.875440 -4.035446 1.034271 -10.325389 4.013560 7.044278 -6.147977 -3.722441 -3.390770 -3.691924 3.049490 -7.319068 -0.000002 -0.000001 0.000000 0.000000 0.000000 -4.027118 -6.875440 -4.035446 3.297722 1.548646 2.685371 1.151563 0.356537 1.578239 0.000000 0.000000 0.000000 0.000000 0.000000 0.000000 1.124399 0.381294 1.583577 5.800807 -0.062504 0.381136 -7.524192 1.574236 -0.320530 0.000000 0.000000 0.000000 1.124399 0.381294 1.583577 1.058660 -17.352207 -12.300426 0.000000 0.000000 0.000000 3.778535 -19.441707 -69.801480 0.000003 -1.327812 -0.000002 0.000000 0.000000 0.000000 1.124399 0.381294 1.583577 1.180833 15.472180 14.771835 0.000000 0.000000 0.000000 13.716024 28.359716 57.925011 -0.000002 6.249313 -0.000018 0.000000 0.000000 0.000000 
0.223782 101.707436 0.247807 0.000000 0.000000 0.000000 -4.092605 -7.247966 -4.084880 -12.320218 14.467348 11.823548 13.967717 3.872622 3.743009 1.315503 0.414728 -7.419411 -4.940031 -0.000007 -0.000004 0.000000 0.000000 0.000000 -4.092605 -7.247966 -4.084880 0.914712 -10.316924 4.088199 7.278574 -5.423399 -3.802634 -3.426698 -4.080705 2.999807 -7.330734 -0.000006 -0.000001 0.000000 0.000000 0.000000 -4.092605 -7.247966 -4.084880 3.297562 1.555599 2.696770 1.151563 0.369530 1.590824 0.000000 0.000000 0.000000 0.000000 0.000000 0.000000 1.124399 0.393026 1.596636 5.831335 -0.062842 0.374430 -7.475919 1.577513 -0.394254 0.000000 0.000000 0.000000 1.124399 0.393026 1.596636 1.060255 -17.297908 -12.280450 0.000000 0.000000 0.000000 3.805021 -19.147100 -69.757835 -0.000003 -1.211521 0.000022 0.000000 0.000000 0.000000 1.124399 0.393026 1.596636 1.194994 15.607836 14.686011 0.000000 0.000000 0.000000 13.976962 28.670829 57.646100 -0.000004 6.450812 -0.000017 0.000000 0.000000 0.000000 
0.236959 101.668243 0.252430 0.000000 0.000000 0.000000 -4.160432 -7.640869 -4.106739 -12.316393 14.476934 11.934471 14.215046 4.231874 3.686784 1.166275 0.417117 -7.482698 -4.940030 0.000003 0.000000 0.000000 0.000000 0.000000 -4.160432 -7.640869 -4.106739 0.707762 -10.301857 4.111957 7.645623 -4.700744 -3.875653 -3.511363 -4.455116 2.951808 -7.338741 -0.000003 -0.000000 0.000000 0.000000 0.000000 -4.160432 -7.640869 -4.106739 3.297862 1.564988 2.691232 1.151564 0.384365 1.605656 0.000000 0.000000 0.000000 0.000000 0.000000 0.000000 1.124399 0.407742 1.611574 5.863452 -0.064803 0.368955 -7.398856 1.577662 -0.481165 0.000000 0.000000 0.000000 1.124399 0.407742 1.611574 1.063181 -17.245405 -12.250374 0.000000 0.000000 0.000000 3.804467 -18.782583 -69.731484 -0.000003 -1.067820 0.000015 0.000000 0.000000 0.000000 1.124399 0.407742 1.611574 1.215971 15.788177 14.561688 0.000000 0.000000 0.000000 14.203574 28.978105 57.321816 -0.000007 6.893225 0.000005 0.000000 0.000000 0.000000 
0.250865 101.634399 0.256626 0.000000 0.000000 0.000000 -4.237183 -8.048081 -4.125664 -12.270209 14.493467 12.031503 14.419381 4.601436 3.630563 1.033948 0.420377 -7.563318 -4.940029 0.000001 -0.000001 0.000000 0.000000 0.000000 -4.237183 -8.048081 -4.125664 0.526498 -10.293193 4.126346 7.981698 -3.938179 -3.940961 -3.580090 -4.835058 2.896058 -7.338833 -0.000003 -0.000000 0.000000 0.000000 0.000000 -4.237183 -8.048081 -4.125664 3.298256 1.570737 2.686786 1.151564 0.396339 1.624561 0.000000 0.000000 0.000000 0.000000 0.000000 0.000000 1.124400 0.417804 1.631163 5.917235 -0.070725 0.358808 -7.279939 1.576517 -0.590293 0.000000 0.000000 0.000000 1.124400 0.417804 1.631163 1.067790 -17.209100 -12.209660 0.000000 0.000000 0.000000 3.771160 -18.311829 -69.739086 0.000001 -0.906997 -0.000022 0.000000 0.000000 0.000000 1.124400 0.417804 1.631163 1.234879 15.961068 14.452066 0.000000 0.000000 0.000000 14.265893 29.191071 56.957306 -0.000001 7.616439 0.000004 0.000000 0.000000 0.000000 
0.261373 101.598312 0.262226 0.000000 0.000000 0.000000 -4.328360 -8.456485 -4.143007 -12.201509 14.519753 12.130033 14.614996 4.955608 3.577219 0.903301 0.423474 -7.680728 -4.940031 0.000005 0.000002 0.000000 0.000000 0.000000 -4.328360 -8.456485 -4.143007 0.348458 -10.284761 4.135430 8.339921 -3.178065 -4.001643 -3.660275 -5.212429 2.832883 -7.336733 -0.000004 0.000000 0.000000 0.000000 0.000000 -4.328360 -8.456485 -4.143007 3.293325 1.572624 2.688031 1.139893 0.399032 1.650152 0.000000 0.000000 0.000000 0.000000 0.000000 0.000000 1.112628 0.422715 1.656054 6.027143 -0.077009 0.331258 -7.073953 1.581356 -0.748213 0.000000 0.000000 0.000000 1.112628 0.422715 1.656054 1.074913 -17.196174 -12.153148 0.000000 0.000000 0.000000 3.738127 -17.776787 -69.777855 -0.000004 -0.754011 0.000016 0.000000 0.000000 0.000000 1.112628 0.422715 1.656054 1.247189 16.082765 14.381704 0.000000 0.000000 0.000000 13.939135 29.104915 56.693592 -0.000004 8.700781 -0.000009 0.000000 0.000000 0.000000 
0.265564 101.578316 0.272114 0.000000 0.000000 0.000000 -4.434418 -8.862024 -4.165468 -12.055054 14.564089 12.226728 14.716752 5.293325 3.521146 0.800312 0.426015 -7.843064 -4.940037 -0.000007 -0.000001 0.000000 0.000000 0.000000 -4.434418 -8.862024 -4.165468 0.271236 -10.283196 4.161880 8.569983 -2.417089 -4.061785 -3.695344 -5.590522 2.763692 -7.336378 0.000005 0.000002 0.000000 0.000000 0.000000 -4.434418 -8.862024 -4.165468 3.271951 1.572745 2.702365 1.107759 0.398068 1.681915 0.000000 0.000000 0.000000 0.000000 0.000000 0.000000 1.080384 0.421404 1.688024 6.226053 -0.088992 0.280076 -6.708932 1.577865 -0.986837 0.000000 0.000000 0.000000 1.080384 0.421404 1.688024 1.086083 -17.206783 -12.069306 0.000000 0.000000 0.000000 3.746662 -17.251222 -69.839408 -0.000002 -0.634576 -0.000007 0.000000 0.000000 0.000000 1.080384 0.421404 1.688024 1.253445 16.142720 14.334161 0.000000 0.000000 0.000000 13.068706 28.584004 56.655381 -0.000010 10.264119 -0.000010 0.000000 0.000000 0.000000 
